HIERARCHY
ROOT root
{
	OFFSET	0	13.1	24.9
	CHANNELS 6  Xposition Yposition Zposition Xrotation Yrotation Zrotation
	JOINT spine_1
	{
		OFFSET	0	9.99999	0
		CHANNELS 3  Xrotation Yrotation Zrotation
		JOINT spine_2
		{
			OFFSET	0	112	-10
			CHANNELS 3  Xrotation Yrotation Zrotation
			JOINT spine_3
			{
				OFFSET	0	206.5	19.3
				CHANNELS 3  Xrotation Yrotation Zrotation
				JOINT spine_4
				{
					OFFSET	0	110.4	14.6
					CHANNELS 3  Xrotation Yrotation Zrotation
					JOINT neck_1
					{
						OFFSET	0	71.8	-50.3
						CHANNELS 3  Xrotation Yrotation Zrotation
						JOINT neck_2
						{
							OFFSET	0	86.2	-25.8
							CHANNELS 3  Xrotation Yrotation Zrotation
							JOINT head_ee
							{
								OFFSET	0	179.8	-8.7
								CHANNELS 3  Xrotation Yrotation Zrotation
								End Site
								{
									OFFSET	1	0	0
								}
							}
						}
					}
					JOINT left_clavicle
					{
						OFFSET	-43.2	22.4	-70.8
						CHANNELS 3  Xrotation Yrotation Zrotation
						JOINT left_shoulder
						{
							OFFSET	-93.9	-5.79999	48.7
							CHANNELS 3  Xrotation Yrotation Zrotation
							JOINT left_elbow
							{
								OFFSET	-291.4	-30.8	15.2
								CHANNELS 3  Xrotation Yrotation Zrotation
								JOINT left_lowarm_twist
								{
									OFFSET	-110.7	-3.89999	13.6
									CHANNELS 3  Xrotation Yrotation Zrotation
									JOINT left_hand
									{
										OFFSET	-110.7	-3.89999	13.6
										CHANNELS 3  Xrotation Yrotation Zrotation
										JOINT left_ee
										{
											OFFSET	-80.8	-5.10001	12.1
											CHANNELS 3  Xrotation Yrotation Zrotation
											End Site
											{
												OFFSET	1	0	0
											}
										}
									}
								}
							}
						}
					}
					JOINT right_clavicle
					{
						OFFSET	43.2	22.4	-70.8
						CHANNELS 3  Xrotation Yrotation Zrotation
						JOINT right_shoulder
						{
							OFFSET	93.9	-5.79999	48.7
							CHANNELS 3  Xrotation Yrotation Zrotation
							JOINT right_elbow
							{
								OFFSET	291.4	-30.8	15.2
								CHANNELS 3  Xrotation Yrotation Zrotation
								JOINT right_lowarm_twist
								{
									OFFSET	110.7	-3.89999	13.6
									CHANNELS 3  Xrotation Yrotation Zrotation
									JOINT right_hand
									{
										OFFSET	110.7	-3.89999	13.6
										CHANNELS 3  Xrotation Yrotation Zrotation
										JOINT right_ee
										{
											OFFSET	80.8	-5.10001	12.1
											CHANNELS 3  Xrotation Yrotation Zrotation
											End Site
											{
												OFFSET	1	0	0
											}
										}
									}
								}
							}
						}
					}
				}
			}
		}
	}
	JOINT left_hip
	{
		OFFSET	-82.8	-127.5	0.300001
		CHANNELS 3  Xrotation Yrotation Zrotation
		JOINT left_knee
		{
			OFFSET	-28.2	-396.7	2.2
			CHANNELS 3  Xrotation Yrotation Zrotation
			JOINT left_ankle
			{
				OFFSET	-11.7	-411.3	35.4
				CHANNELS 3  Xrotation Yrotation Zrotation
				JOINT left_toes
				{
					OFFSET	0	-60	-88.6
					CHANNELS 3  Xrotation Yrotation Zrotation
					JOINT left_foot_ee
					{
						OFFSET	-22.5	-16.5	-42.2
						CHANNELS 3  Xrotation Yrotation Zrotation
						End Site
						{
							OFFSET	1	0	0
						}
					}
				}
			}
		}
	}
	JOINT right_hip
	{
		OFFSET	82.8	-127.5	0.300001
		CHANNELS 3  Xrotation Yrotation Zrotation
		JOINT right_knee
		{
			OFFSET	28.2	-396.7	2.2
			CHANNELS 3  Xrotation Yrotation Zrotation
			JOINT right_ankle
			{
				OFFSET	11.7	-411.3	35.4
				CHANNELS 3  Xrotation Yrotation Zrotation
				JOINT right_toes
				{
					OFFSET	0	-60	-88.6
					CHANNELS 3  Xrotation Yrotation Zrotation
					JOINT right_foot_ee
					{
						OFFSET	22.5	-16.5	-42.2
						CHANNELS 3  Xrotation Yrotation Zrotation
						End Site
						{
							OFFSET	1	0	0
						}
					}
				}
			}
		}
	}
}
MOTION
Frames: 12
Frame Time: 0.02
2086.97 690.124 -713.155 -156.936 -82.4888 -160.232 -0.479183 0.695754 2.92571 -0.474565 0.508258 2.96401 -0.44478 -0.149279 3.00353 -0.45722 0.326729 2.98945 -5.89208 6.1843 -4.37012 -5.79062 14.6437 -3.27682 -0.0 0.0 -0.0 -1.94796 15.6917 -1.24435 -23.8022 -14.2131 69.5775 0.216889 -6.1325 0.0116182 17.1573 0.282204 -2.16535 1.71842 29.0081 21.0588 -0.0 0.0 -0.0 10.34 19.4645 -20.2035 8.9327 23.2576 -51.8382 2.74539 53.6631 -1.38889 -4.80588 0.19392 -0.582734 -1.83067 9.53731 16.6376 0.0 0.0 0.0 30.8637 4.78432 -1.6208 4.36506 -0.204207 -0.638435 -23.7866 21.6695 3.67239 14.103 -0.0 -0.0 -0.0 0.0 -0.0 -20.1185 27.7012 6.60087 -5.65506 -0.191182 -0.846476 20.6183 -10.8031 2.81302 6.61726 -0.0 -0.0 0.0 0.0 0.0 
2110.39 691.116 -717.424 -154.252 -81.4314 -156.732 -0.404029 0.719521 2.74857 -0.399991 0.543235 2.78874 -0.370472 -0.0732258 2.84018 -0.381531 0.376065 2.81614 -3.50006 6.38898 -3.80952 -3.35418 14.5814 -2.98837 -0.0 0.0 -0.0 -1.98032 16.069 -1.23298 -23.8661 -13.7875 69.3025 0.245298 -6.92841 0.0148493 16.5794 0.283318 -2.09155 2.02519 28.8375 22.8334 -0.0 0.0 -0.0 10.7858 20.4156 -21.1398 8.82125 22.2275 -51.5627 2.79265 54.1283 -1.42707 -5.32704 0.217875 -0.644914 -1.44678 11.3212 14.7246 0.0 0.0 0.0 31.1539 4.95982 -1.63514 2.94596 -0.132477 -0.432571 -23.7031 22.2619 3.66846 13.5993 -0.0 -0.0 -0.0 0.0 -0.0 -19.9667 27.6404 5.7963 -5.44362 -0.185545 -0.814517 19.1905 -11.1298 2.63606 5.9826 -0.0 -0.0 0.0 0.0 0.0 
2136.24 689.951 -724.201 -156.838 -80.9749 -158.85 -0.513896 0.741761 2.66993 -0.510111 0.570428 2.71167 -0.480027 -0.0352577 2.77075 -0.490513 0.402606 2.7416 -2.02852 6.65656 -3.41948 -1.85409 14.727 -2.73615 -0.0 0.0 -0.0 -1.80058 16.6638 -0.85283 -23.9731 -13.5009 69.4332 0.280414 -7.90847 0.0193835 16.2284 0.283632 -2.04671 2.17344 28.775 23.7087 -0.0 0.0 -0.0 11.1079 21.0803 -21.8183 6.6059 21.2285 -50.6346 2.89501 55.1012 -1.51053 -5.26578 0.21503 -0.637617 -0.636306 13.6033 10.1111 0.0 0.0 0.0 31.3673 5.13508 -2.46902 -0.831258 0.0333343 0.12321 -24.419 23.8127 3.80568 13.5963 -0.0 -0.0 -0.0 0.0 -0.0 -23.447 27.1252 6.2311 -3.82411 -0.138452 -0.570444 19.6294 -12.2618 2.69532 5.51122 -0.0 -0.0 0.0 0.0 0.0 
2157.63 688.033 -726.906 -161.642 -80.614 -163.402 -0.642295 0.741337 2.6187 -0.638662 0.57326 2.66052 -0.608911 -0.0274466 2.7214 -0.61902 0.402534 2.69163 -1.09814 6.84639 -3.16132 -0.905217 14.8296 -2.55957 -0.0 0.0 -0.0 -1.67346 17.0188 -0.597921 -24.0914 -13.3161 69.034 0.305559 -8.60744 0.0229951 15.9795 0.283688 -2.01493 2.27596 28.732 24.3194 -0.0 0.0 -0.0 11.3548 21.5466 -22.3419 4.85101 20.4514 -50.1344 2.96975 55.7828 -1.57208 -5.2448 0.214058 -0.635116 -0.0493707 15.1725 6.79277 0.0 0.0 0.0 31.5353 5.30274 -2.56521 -3.47854 0.127511 0.518537 -24.9158 24.9097 3.90407 13.594 -0.0 -0.0 -0.0 0.0 -0.0 -25.8071 26.7646 6.49923 -2.7137 -0.102182 -0.403891 19.8131 -13.1167 2.72226 5.15118 -0.0 -0.0 0.0 0.0 0.0 
2190.63 699.608 -732.342 -161.052 -81.2455 -162.507 -0.719787 0.559203 2.55038 -0.716256 0.395838 2.58076 -0.695582 -0.187036 2.60422 -0.704975 0.226456 2.60109 -2.19119 7.60892 -2.1422 -2.03895 15.45 -1.24268 -0.0 0.0 -0.0 -1.46211 16.9984 -0.272969 -23.6376 -13.4223 68.6315 0.35575 -9.99471 0.0311076 15.8791 0.283671 -2.00211 2.15476 28.6896 23.578 -0.0 0.0 -0.0 11.4026 20.8046 -22.5094 1.42357 19.2986 -50.5047 3.02182 56.244 -1.61526 -5.82358 0.241225 -0.703955 0.432043 16.5672 4.15086 0.0 0.0 0.0 29.272 5.41091 -2.33744 -5.68166 0.191884 0.850499 -20.8369 26.1794 3.28509 14.5102 -0.0 -0.0 -0.0 0.0 -0.0 -25.3735 26.7152 6.51354 -4.47838 -0.158309 -0.668891 19.9637 -15.4778 2.75532 4.90807 -0.0 -0.0 0.0 0.0 0.0 
2217.06 708.315 -735.543 -162.442 -82.247 -163.37 -0.769913 0.413737 2.37089 -0.766824 0.262077 2.3924 -0.753515 -0.278148 2.39058 -0.761476 0.102778 2.40451 -3.15781 8.20088 -1.75788 -3.02645 16.285 -0.63033 -0.0 0.0 -0.0 -1.06942 16.7853 0.305951 -22.7452 -13.982 68.1876 0.406422 -11.3834 0.0405068 15.815 0.283649 -1.99391 1.87206 29.1517 21.9953 -0.0 0.0 -0.0 11.6091 20.5095 -23.0023 -1.29123 18.5351 -50.8571 2.87464 54.9113 -1.49385 -6.38463 0.268225 -0.770423 0.712125 16.4261 2.21426 0.0 0.0 0.0 27.3099 5.55882 -1.56245 -9.1227 0.266756 1.37316 -13.9784 26.4388 2.19765 16.7164 -0.0 -0.0 -0.0 0.0 -0.0 -24.6622 25.9791 5.57418 -6.79197 -0.219473 -1.01865 18.7511 -17.0105 2.61255 5.16686 -0.0 -0.0 0.0 0.0 0.0 
2241.35 714.655 -739.8 -171.129 -82.4367 -171.85 -0.892916 0.31204 2.24718 -0.890122 0.168451 2.26247 -0.881357 -0.345493 2.24228 -0.888373 0.0128747 2.26869 -4.71369 8.71191 -1.39272 -4.62666 17.0463 0.0445652 -0.0 0.0 -0.0 -0.785411 16.5969 0.7225 -21.9387 -14.4642 67.7894 0.451331 -12.6029 0.0498393 15.7722 0.283629 -1.98844 1.63436 29.4435 20.6726 -0.0 0.0 -0.0 11.5072 20.3548 -22.7815 -4.28195 17.7065 -51.2099 2.73209 53.5303 -1.37819 -6.80461 0.288862 -0.820007 0.950763 16.3561 0.587261 0.0 0.0 0.0 26.1606 5.63366 -1.04918 -11.56 0.300733 1.74557 -9.02011 26.0796 1.4074 18.2891 -0.0 -0.0 -0.0 0.0 -0.0 -24.3762 25.4189 5.06994 -11.1416 -0.296028 -1.68155 17.8434 -18.0442 2.50359 5.33526 -0.0 -0.0 0.0 0.0 0.0 
2260.77 714.353 -746.525 -175.802 -83.359 -176.213 -0.938642 0.199678 2.17515 -0.936012 0.0608964 2.18344 -0.931818 -0.43443 2.14068 -0.938202 -0.0909826 2.1824 -5.80676 9.07833 -1.09379 -5.75591 17.5762 0.574339 -0.0 0.0 -0.0 -0.460885 16.0042 1.15401 -20.8676 -14.977 67.0608 0.4884 -13.6009 0.0582425 15.7453 0.283614 -1.98501 1.46409 29.5409 19.7126 -0.0 0.0 -0.0 11.4409 20.2409 -22.6386 -6.40672 17.1158 -51.4265 2.62183 52.3964 -1.29017 -7.09957 0.303573 -0.85474 1.11615 16.2213 -0.578196 0.0 0.0 0.0 24.476 5.69736 -0.668854 -13.5686 0.316809 2.05333 -5.56076 25.8051 0.861852 19.3998 -0.0 -0.0 -0.0 0.0 -0.0 -23.6569 25.111 4.70059 -14.2341 -0.319754 -2.15539 17.1299 -18.8663 2.41718 5.43143 -0.0 -0.0 0.0 0.0 0.0 
2279.24 712.763 -753.544 -178.166 -84.1596 -178.932 -0.974663 0.134489 2.19259 -0.971989 -0.00526982 2.1967 -0.97036 -0.503367 2.13829 -0.976705 -0.159432 2.19092 -7.63484 9.33813 -0.526087 -7.65202 17.7804 1.47266 -0.0 0.0 -0.0 -0.0438282 15.4319 1.74482 -19.8113 -15.6102 66.4882 0.524994 -14.578 0.0671512 15.905 0.283678 -2.00541 1.32819 29.0377 18.8021 -0.0 0.0 -0.0 11.4667 20.7743 -22.6576 -8.64884 17.2587 -51.7203 2.51006 51.1842 -1.20234 -7.30728 0.31404 -0.879154 1.34886 15.326 -2.53214 0.0 0.0 0.0 23.1248 5.72878 -0.421247 -15.0278 0.321717 2.27715 -1.23689 25.341 0.1897 20.4555 -0.0 -0.0 -0.0 0.0 -0.0 -22.7023 25.0428 4.0613 -16.395 -0.321142 -2.48692 15.4276 -19.5803 2.1971 5.15881 -0.0 -0.0 0.0 0.0 0.0 
2302.08 716.954 -753.654 171.891 -84.3223 171.758 -0.974634 0.0288205 1.99888 -0.972417 -0.0984059 1.99666 -0.974452 -0.548856 1.92229 -0.97953 -0.23844 1.98482 -8.89458 9.5074 -0.148296 -8.95885 17.9251 2.07908 -0.0 0.0 -0.0 0.286951 14.7587 2.19838 -18.4967 -16.2267 65.9613 0.560908 -15.5285 0.076479 16.0177 0.283688 -2.01981 1.23019 28.6734 18.1418 -0.0 0.0 -0.0 11.4944 21.1483 -22.6917 -10.2649 17.4064 -51.9533 2.41777 50.1326 -1.13096 -7.47193 0.3224 -0.898481 1.51651 14.6623 -3.9524 0.0 0.0 0.0 22.1169 5.74812 -0.221721 -16.222 0.321492 2.46037 1.77696 24.9883 -0.270231 21.1936 -0.0 -0.0 -0.0 0.0 -0.0 -22.1675 25.0404 3.97365 -18.2071 -0.312668 -2.7648 14.2292 -20.0638 2.03921 4.96613 -0.0 -0.0 0.0 0.0 0.0 
2319.1 719.659 -753.894 158.88 -84.4847 159.018 -0.979731 -0.0859904 1.82158 -0.977907 -0.201709 1.81243 -0.983276 -0.607941 1.71933 -0.987251 -0.328822 1.79373 -9.68233 9.86201 -0.0575086 -9.78238 18.5873 2.38166 -0.0 0.0 -0.0 0.553333 13.6077 2.50981 -16.6321 -17.0828 65.3982 0.598796 -16.5219 0.0869387 16.1009 0.283678 -2.03043 1.11806 28.4082 17.4252 -0.0 0.0 -0.0 11.502 21.259 -22.7003 -12.8999 17.5276 -53.6525 2.18774 47.2952 -0.958061 -7.59626 0.32875 -0.913058 1.58894 13.3101 -5.03951 0.0 0.0 0.0 20.9251 5.72944 -0.178902 -16.7521 0.320167 2.5417 4.02645 24.3286 -0.606904 21.6737 -0.0 -0.0 -0.0 0.0 -0.0 -21.3928 25.2521 4.84561 -19.472 -0.301547 -2.95856 12.945 -20.4315 1.86638 4.51275 -0.0 -0.0 0.0 0.0 0.0 
2339.19 726.009 -760.098 146.141 -84.5878 146.031 -1.11571 -0.0234457 1.75637 -1.11401 -0.135143 1.75133 -1.11707 -0.533114 1.6737 -1.12088 -0.262137 1.73687 -10.2302 10.0347 -0.938175 -10.3606 19.5406 1.66399 -0.0 0.0 -0.0 1.42191 11.7932 3.78386 -14.8339 -17.9443 63.9377 0.636338 -17.4962 0.0979209 16.1549 0.283663 -2.03733 0.819928 28.747 15.8259 -0.0 0.0 -0.0 11.196 21.1467 -22.0131 -14.8798 17.0568 -54.1783 1.87874 42.9391 -0.738957 -7.24054 0.310667 -0.871314 1.58033 11.4213 -5.81181 0.0 0.0 0.0 16.2656 5.88192 0.347163 -17.1245 0.318788 2.59881 10.5456 23.0481 -1.55024 23.0189 -0.0 -0.0 -0.0 0.0 -0.0 -18.4488 25.8388 3.89688 -25.6196 -0.186772 -3.89448 14.2203 -20.5692 2.04206 4.71846 -0.0 -0.0 0.0 0.0 0.0 
